<svg height="37" viewBox="0 0 185 37" width="185" xmlns="http://www.w3.org/2000/svg"><g fill="#fff"><path d="m166.392491 12.802c-.446793-.3117075.083773-.9466415 0-1.3393302.135084-.6810094 2.178113-.4743679 2.75999-.4743679.498104.1301981 1.023783 0 1.573198.1301981.213972-.1022736.660764.0296698.684151-.2872736-.158122-.4188679-.577339-.3926887-.916972-.4736698-1.419613.0541038-2.862264.0279245-4.332839.0809811h-.74c-1.549488.0621898-3.101415.0182222-4.644896-.1315943-.28867.1315943-.842274.1567264-.791312.6324906.048893.0267398.102669.0433595.158123.0488679.186025.0679948.386467.0867524.581877.0544528 1.177368.2359623 3.332444-.0785377 4.463387.0757453.132326.204149.204874.4412588.209434.6845.023387.2886698.023387.8405283-.209434.9986509-.763387-.0785377-3.360368-.2094339-4.15133.1567265-.668822-.113038-1.355579-.0491395-1.992066.185349-.059457.1136112-.06807.2470745-.02371.3673858.04436.1203112.137552.2162376.256531.2640576.656226.0767925 2.392085-.2918113 3.257745-.2125755.679613-.1811603 1.968679 0 2.885302.0254812.282947.0072154.565735-.0196219.842273-.079934.763387-.1267075 4.598123.1329906 5.1985 0 .142073-.0872164.207119-.259523.158123-.4188679-.130198-.314151-4.33284-.4188679-5.226424-.2890189"/><path d="m179.666066 12.2065094c.00226.1666511.032101.3317777.088311.4886793.060387.1839528.088312.3361415.153585.5207924.027925.1511415.088312.2750566.116236.3993208.115297.0931075.240143.1737249.372444.2405.161245.0786547.334178.1306408.512066.1539339.186047.030368.372443.030368.526028.0624812.143137.0006532.285541.0204935.423406.0589905v.2415472c.007539.0521787.018382.1038264.032462.1546321.032462.0642264.032462.0918019.065273.1228679.060387.0610849.116236.0925.18151.1525378l.060387-.0296699.335094-.1228679c.027924-.2443396.065274-.4579622.093198-.6998585.055417.0329156.117373.0532895.181509.0596887.100126.030455.207045.030455.30717 0 .121123 0 .241897-.0303679.335095-.0303679.078604-.0223548.160227-.0322485.241896-.0293208.196075-.0373008.370709-.1475699.488679-.308566.22518-.2747827.381579-.5993075.456217-.9466415.147519-.3679872.211078-.7642514.186047-1.1599151.002066-.2856177-.018124-.5709623-.060387-.8534434-.060386-.0631793-.088311-.123217-.12566-.153934-.019071-.0323118-.051349-.0546385-.088311-.0610849-.047006-.0293207-.10658-.0293207-.153585 0-.032462 0-.093198.0293208-.121123.0293208-.027924 0-.060387.0317641-.093198.0317641-.04543.1087905-.084246.2202262-.116236.3336981-.032462.1239151-.060387.2164151-.097736.3396321.037349.1829057.065274.3340472.097736.5193962-.031478.2218045-.095829.437681-.190934.6405189-.456217 1.0063302-.879622.6701887-1.340377.518v-2.3512453c-.041637-.0390373-.09651-.060862-.153585-.0610849-.027925-.0293207-.093198-.0293207-.181509-.0293207v.0293207c-.088312 0-.153585.0293208-.213972.0293208s-.093198.0317641-.12566.0317641c-.027925.0907547-.027925.2443396-.05585.4289906 0 .1525377-.032462.3630189-.032462.6129434-.035116.2208541-.055291.4438259-.060387.6673962-.032462.1843019-.032462.6419151-.060386.7651321-.400368.2443396-.981897.3354434-1.224142-.7354623 0-.0876132-.027924-.1490471-.027924-.2094339v-1.1948208c-.085569-.1160393-.177269-.2274304-.274708-.3336981h-.488679v.5501132c-.028699.0993479-.039804.2029493-.032812.3061226v.3026321c0 .0624812.032812.1525378.032812.2178113-.002396.1020907.008517.2040585.032462.3033302"/><path d="m174.164236 17.4308396c.244762.0016595.485609-.0614425.698113-.1829056.186047-.0656227.339632-.0959906.493217-.1535849v-.0310661c.292145-.0942109.578115-.2065937.856236-.3364905.331533-.1635371.677389-.296271 1.033207-.3965283.61434-.2443397 1.256604-.6726321 1.959255-.7654812.516604-.0582924 1.615085.4886793 2.07584.7019528.30717.1560284.609802.3061227.916971.4604057.428293.1839528.823774.3982736 1.252067.6125943.234551.0863075.480927.1362183.730575.148.214516.0070335.429253-.0026531.642264-.0289716 0-1.0677642-.027924-.7330189-1.252066-1.2189057-.44603-.2381247-.904277-.4526254-1.37284-.6426132-.041362-.0396368-.096298-.0619856-.153584-.0624811-.549183-.2117611-1.037862-.3947831-1.466038-.5490661-.428293-.1832547-1.098481-.3361415-1.37284-.4886792-.30717.0949434-.52149.2146698-1.009821.3996698-.528689.1863612-1.047485.3996816-1.554349.6391226-.12566.0624812-.279245.123217-.428292.1825566-.460755.1574246-.856236.3361415-1.224142.462151-.380553.1517618-.768902.2831924-1.163405.3937358-.066743.1091642-.12734.2219686-.18151.3378868-.027924.456217-.209434.3993208.521491.5204434"/><path d="m184.548321 26.5611132c-.863443-.2738396-1.544543-.9430112-1.833595-1.8014811-.11753-.2777754-.260926-.5438812-.428292-.7948019-.027925-.0586415-.055849-.1200755-.088311-.1825566-.143911-.2968815-.266734-.6035301-.367557-.9176698-.121123-.4258491-.213972-.7609434-.302632-1.0649717-.065274-.3085661-.12566-.5525566-.158123-.7330189-.043616-.027278-.084217-.0591037-.121122-.0949434-.050145-.0226014-.101406-.0426398-.153585-.0600377h-.241896c-.05585.1549811-.153585.3054245-.213972.4576132v.4886792c.060387.2122264.120773.4597076.181509.7623397.088312.3347452.274708.7637358.428293 1.1909811.119227.3553934.262317.7023303.428292 1.0384434.18151.308566.339632.5808302.488679.7934056l.032463.030717c.153585.1546321.30717.3368396.488679.5532547.208664.25838.455072.483842.730924.6687925.208309.1960876.457969.3429253.730576.4296887.179841.0528638.369578.062787.553953.0289717-.003914-.0340357.008211-.0679575.032811-.0918019 0-.0282736.027925-.0582925.027925-.1211227.032811-.0289717.060386-.0600377.093198-.0600377.027924-.0324623.027924-.0324623.060387-.0324623-.064921-.1991544-.194224-.3710666-.367557-.4886792"/><path d="m174.681538 13.8243868c.219418.1042087.459761.156862.702651.153934.161874-.0225514.325269-.0323551.488679-.0293208.032462.3043774.065274.5769906.093198.8527453h.274359c.093198-.0296698.121122-.0600378.181509-.0600378.04676-.0235968.089235-.0548632.12566-.0925v-.364066c.027925-.0603868.027925-.1549811.060387-.2139717 0-.0624811.032462-.0925.032462-.1218207.139227-.0284144.281523-.0388549.423406-.0310661.207679-.0076339.413801-.0390207.61434-.0935472.223859-.0690861.43133-.1829757.609802-.3347452.179151-.1799525.342636-.3748499.488679-.5825755v-1.159217c.007079-.2137008-.003897-.4276177-.032812-.6394717-.014721-.1451788-.044314-.2884618-.088311-.4275943-.025384-.0545436-.056634-.1061594-.093198-.153934h-.274707c-.069057.0402774-.130496.0923817-.18151.153934v1.3742358c-.12566.1811604-.218858.3654623-.30717.5190472-.614339.7626887-.521141.1511415-1.158868.1825566v-.5204434c-.027689-.2213238-.038541-.4444299-.032462-.6673962-.032462-.2499246-.032462-.4604057-.060387-.6129434v-.4289906c-.054569-.0383933-.11934-.0596594-.186047-.0610849-.027924-.0293207-.093198-.0293207-.149047-.0293207 0 0-.032811 0-.032811.0293207-.061268.0042472-.122021.0140613-.18151.0293208-.060387 0-.093198.0317641-.12566.0317641.002593.1332093-.006752.2663831-.027925.3979245.003784.1830139-.007071.3660374-.032462.5473208 0 .1860472-.027925.3661604-.027925.5204434v.4282924c.027925.0935472.060387.2122265.088312.3361416-.702651.3689528-1.037745.3961792-1.345264-.5497642-.08799-.1945403-.149055-.4001653-.18151-.6111981-.004935-.2144355-.025115-.4282485-.060387-.6398208-.023005-.1515746-.075161-.2972561-.153584-.4289905-.027925 0-.027925-.0317642-.05585-.0317642-.037349 0-.097735-.0293207-.12566-.0293207-.060387-.0293208-.093198-.0293208-.12566 0-.027925 0-.060387.0293207-.093198.0610849 0 .0610849-.027925.1818585-.027925.2722641-.02416.1322386-.033525.2667554-.027924.4010661-.025821.1301642-.036712.2628486-.032463.3954811v.8248207c.10677.2859325.239134.5616426.395481.8237736.159224.2466859.380786.4469345.642265.5804812"/><path d="m168.46833 18.4225094c-.995858 0-1.940755 0-2.9415.0767925-.027924 0-.051311-.024783-.10716-.024783-.442255-.0520095-2.336236.024783-2.676217.2335188-.260745-.1811603-.18151-.6028207-.28867-.9173207-.051311-.4464434.446792-.2893679.679613-.3919906.28867.1839528 1.289066.1553302 2.285274.1022736 1.075094-.0781887 2.154726-.2363113 2.341122-.2363113.107711-.0875314.248531-.1231279.384897-.0972943.136367.0258336.25441.1104698.322641.231332 0 .3396321.265283.7064906 0 1.023434zm-.604915 2.3104057c-.526028 0-.916972.3961792-1.442651.4453962-.325578.089643-.663594.1256022-1.000745.1064623-.343425.0293488-.689299-.0067785-1.019245-.1064623-.553953.209434-.949434-.2377075-1.316991-.6300471-.051311-.314151-.395481-.8377359-.339632-1.1812076.735462-.2872736 1.810557-.0502641 2.676217-.1315943.187902-.0157541.373597-.0514421.553953-.1064623.502641.264934 2.415471.0261792 2.596981 0-.182208.4981038.032113 1.5798302-.707887 1.6049623zm-4.649434-5.4369057c.684151.0265283 1.419613-.1329905 2.206038-.0767924h.055849c.893585.0506132 1.889443-.0268774 2.755104.0254811.054021.0912522.114688.1784029.181509.2607453.047063.3749204.065733.7528608.055849 1.1305943-.367556.1588208-.763387-.0534056-1.103019-.0809811-.339632 0-1.182254.0809811-1.945292.1588208-.425435.0614966-.856754.0712247-1.284528.0289717-.316246.1553301-.684151-.0516604-1.051708.1308962-.181509-.1595189-.470179.1829056-.628302-.0785378-.237358-.660066.339632-1.1546792.7585-1.4985zm5.543019-.4719245c-.352879-.3835435-.901214-.5183236-1.391689-.3420755-.646734-.0574612-1.296379-.0752964-1.945292-.0534056h-.94001c-.395481.1326415-1.549811 0-2.075839.1595188-.725672.8039958-.99229 1.9220292-.707538 2.9669812-.321132.999349.255859 3.3108019.967934 4.0989717.130198.0240849.339632.3926887.893585.3926887.209434.0799339.339632.1312452.316594.6283018-.253859.7583248-.465135 1.5302456-.632839 2.312151-.237359.4453962-.418868 1.1801604-.707538 1.4967547-.093776.2862351-.065101.5984984.079236.8628679.158122.0279246.237358-.1260094.339632-.1260094.7585-1.1822547 1.075094-2.5756887 1.363764-3.9415472.163009-.3965283.027925-.5755943.344519-.8946321.211565-.1781529.482148-.2706715.7585-.259349.474717-.0534057 1.056594 0 1.340377.259349.344519 1.1351321.390944 2.3386793.944896 3.391434.418868.5253302.372444 1.4171698 1.107557 1.5986793.158123-.0771416-.10716-.153934 0-.2610944.232821-.8408773-.400368-1.4702264-.660764-2.151934-.209434-.7347641-.339632-1.5515566-.576991-2.2580471-.050962-.3186887-.186047-.7637359.237359-.9462925.372443-.1563773.842273-.2879717 1.000745-.7375566.390944-.4722736.339632-1.3100094.498104-1.8918868.225023-.6110177.304733-1.2660264.232821-1.9131792-.102274-.8150472.158122-2.0524528-.786425-2.3913868"/><path d="m177.246057 20.9115987h-.241897c-.042043-.0006424-.083618.0089426-.121122.0279579-.055742.0259502-.100328.0710316-.125661.1270566-.027924.0589906-.060386.0911038-.060386.1504434-.006893.1335638-.025583.2662566-.055849.3965283-.088087.5632124-.231546 1.1163558-.428293 1.6513868-.107836.320455-.25151.6277095-.428292.9159245-.205887.407586-.462374.7875676-.763387 1.1309434-.312718.298119-.663264.5538406-1.042632.7605944-.206413.1262411-.420972.2386513-.642264.3364905-.031473.05732-.072426.1088953-.121123.1525378v.6447075c.099652.0553467.202188.1053329.30717.1497453.095409.0064326.190681-.0143892.274707-.0600377.145812-.0410227.280824-.1135934.395481-.2125755.186048-.0931981.30717-.1856981.456217-.2761038.125661-.0921509.213972-.1825566.30717-.2443396.27508-.2770129.530181-.573173.763387-.8862547.174483-.1740802.339143-.3577352.493217-.5501132.143922-.1943145.27599-.3971359.395481-.6073585.244533-.4996359.437849-1.022747.576991-1.5613302.093198-.4590094.186047-.8213302.218858-1.0970849v-.7927076c-.032462-.0349056-.032462-.0645754-.065273-.0949434-.032812-.0303679-.060387-.0321132-.093199-.0600377"/><path d="m182.197774 20.2683208c.274707 0 .549066-.0293208.763386-.0293208.317173-.0201625.632762-.0602669.944897-.1200755 1.801132-.6139905-.032812-.8569339-.884161-.5518585h-1.284528c-.516604 0-.916972-.0293207-1.279991-.0293207-.273863-.0247813-.548809-.035616-.823773-.0324623 0-.0572453.032462-.1818585.032462-.3043773.023387-.1532359-.065274-.7961982-.065274-.974217.033434-.1526455.055254-.3076047.065274-.4635472.017291-.0909825.025128-.1835091.023387-.2761038 0-.3619717.065273-.6380754-.023387-.7888679-.125353-.2226532-.358887-.3626409-.61434-.3682547-.121122.0279245-.274707.2708679-.367556.4886792-.033652.2753013-.024231.5541637.027924.8265661l.125661 1.8608207c-.730925 0-1.740746.1553302-2.624906.1218208-.14148-.023548-.284945-.0330188-.428292-.0282736-.525007-.0955438-1.060914-.1161104-1.591699-.0610849-.488679.1228679-.88416.3965283.032463.6701887.153585 0 .302632.0603868.57699.0603868h3.909434c-.027924 2.0507075.032463 4.0954811 0 6.1402547v.3368396c0 .0904057.032463.1829057.032463.2722642.032811.0652735.032811.1253113.060386.1881415.037349.0357972.079673.0660117.125661.0897075.027924.0310661.055849.0310661.121122.0600378h.241897c.110119-.0321911.213981-.0828241.307169-.1497453v-6.9375c.253503-.0270715.508554-.0368677.763387-.0293208h1.312453c.172659.0236061.346925.0334108.521142.0293208"/><path d="m145.840387 22.5898962c0 .8223774-.463896 1.5699403-1.391689 2.2426887-.83474.6428027-1.855227.9979464-2.908689 1.0122642-.686387.0342744-1.352156-.2400992-1.815094-.7480283-.471915-.5642797-.711513-1.2869431-.670189-2.0213868 0-2.0431447 2.261887-3.95039 6.785661-5.7217359zm5.896613 2.3624151c-.225978.0849167-.434272.210958-.61434.3717453-.25578.2164073-.573435.3464015-.907547.3713962-.814465 0-1.222396-.6693742-1.223792-2.0081226v-9.4398868c0-2.8501635-2.125406-4.27466353-6.376217-4.27350072-2.001142 0-3.57434.29600072-4.709821.89044412s-1.707934 1.3225755-1.707934 2.1868396c0 .9154591.43283 1.3726069 1.298491 1.3714434.595839 0 1.000745-.1720849 1.224141-.5190472.19605-.4480705.32168-.9237466.372444-1.4101886.14893-1.1867925 1.211575-1.7792579 3.187933-1.7773963 2.373585 0 3.560378.9671195 3.560378 2.9013585v2.9435944c-6.822893 2.485283-10.23434 4.9185566-10.23434 7.2998207-.044729.936399.328666 1.8443115 1.019246 2.4783019.773894.6411577 1.76101.9670806 2.764528.912783 2.380482.006925 4.664142-.9418754 6.338868-2.633632.143199.7560587.550624 1.4365445 1.149443 1.9198113.599077.4779163 1.346653.7308546 2.11284.7148679.770548.0055928 1.520858-.2465176 2.131688-.7162642.628302-.4775094.944897-.8921886.944897-1.2464811.013882-.0918784-.016135-.1849486-.081081-.2514039-.064947-.0664553-.157303-.0986006-.249476-.0868319"/><path d="m109.803783 23.9958962c-.041887.0471227-.079236.0876132-.116236.1326415-1.18373 1.2574134-2.834187 1.9701652-4.561122 1.9697265-1.532869.0107644-2.980669-.7034937-3.904897-1.9264434-.986666-1.2896478-1.4815123-3.1113743-1.4845374-5.4651793 0-2.526239.4840254-4.4838648 1.4520754-5.8728773.844622-1.3254665 2.319589-2.1142239 3.890934-2.0807265.814349 0 1.386802.1364812 1.703396.4080472.32959.3937199.582162.8459345.744538 1.3330472.200473.6491227.805245 1.0880908 1.484538 1.0775377.786424 0 1.182254-.3961792 1.182254-1.1892358 0-.6897359-.431317-1.2701007-1.293952-1.7410944-.862636-.4709937-2.013708-.70590878-3.453217-.70474956-2.620252 0-4.757991.75571186-6.4132174 2.26712696-1.924537 1.639806-3.0237828 4.0479212-3.0018868 6.5762264 0 2.6788931.7539623 4.7598522 2.2618868 6.2428774 1.5079246 1.4869811 3.5960974 2.230588 6.2645184 2.2308207.28867 0 .558491-.012217.819236-.0282736v.0017453c3.913972-.1476509 4.816981-3.0912453 4.816981-3.0912453l-.25132-.3103113c-.051312.0596887-.097736.1134434-.139623.1706887"/><path d="m132.324915 25.9076792c-.361514-.0617415-.71562-.1609426-1.056594-.296-.334822-.1161175-.608415-.3627672-.7585-.6838018-.112296-.4676588-.156152-.9491354-.130198-1.4293868v-8.6346132c0-1.6056604-.465409-2.8163051-1.396227-3.631934-.930817-.8156289-2.300632-1.2228616-4.109443-1.2216981-2.555095 0-4.539249 1.025761-5.952462 3.077283v-12.49413207c0-.39559749-.134969-.59339623-.404906-.59339623-.590953.148-1.182255.28238679-1.76867.40874528-.260745.05340566-.563028.10925472-.893585.17033963l-3.08566.48867924c-.009425.00383962-.204896.04433019-.088312.1689434l.712076.76792453c1.563774-.1898868 2.043377.41886792 2.187538.88136792.059715.36827512.086233.74116927.079236 1.11418868v19.49690562c.021356.4812137-.028874.9629311-.149048 1.4293868-.141192.3206733-.409195.5683239-.74.6838019-.332909.1395935-.681287.2389626-1.037745.296-.498104.1019245-.749075.2488774-.749075.4464434 0 .2719151.204896.4063019.595839.4063019.59584-.0457264 1.135481-.0945943 1.615085-.1413679s1.177368-.0698113 2.09434-.0698113c.223396 0 .879622.0349056 1.964141.1064622s1.684897.104717 1.782632.104717c.372444 0 .558491-.1099528.558491-.3312547 0-.2471321-.241896-.4188679-.726038-.5211415-.361511-.0617515-.715616-.1609523-1.056594-.296-.335962-.116176-.611072-.3626055-.763387-.6838019-.105266-.468754-.147525-.9494565-.12566-1.4293868v-7.0020755c-.045884-1.4046244.45273-2.7726568 1.391688-3.8183302.829842-.9681719 2.042999-1.5230644 3.318132-1.5176981 2.32239 0 3.4844 1.3088459 3.486029 3.9265378v8.4122641c.02277.48153-.029037.9636859-.153585 1.4293868-.137814.3214082-.404885.5697195-.735462.6838019-.334175.1408117-.684319.2402166-1.042633.296-.493216.1019245-.74.2488773-.74.4464434 0 .2719151.186048.4063019.558491.4063019.590953-.0457264 1.135481-.0945944 1.629047-.141368.493566-.0467735 1.196217-.0698113 2.11284-.0698113.246667 0 .902893.0354874 1.968679.1064623 1.056594.0698113 1.64301.104717 1.735859.104717.395481 0 .595839-.1099529.595839-.3312547 0-.2471321-.237358-.418868-.7215-.5211416"/><path d="m36.7437925 26.5129434c-1.5483422.0571708-3.007161-.7251447-3.8162359-2.0465189-.8935849-1.362717-1.3388648-3.2947453-1.3358549-5.7960849 0-2.4801635.4808989-4.4315063 1.4426662-5.8540283.9680503-1.4236855 2.2045252-2.1365755 3.7094246-2.1386698 1.5737676-.0548226 3.0630294.7118162 3.9328207 2.0245283.9354717 1.3496855 1.404022 3.288695 1.405651 5.8170283-.0006982 5.3282327-1.7801887 7.9928145-5.3384717 7.9937453zm3.5418773-15.9655c-1.0313095-.4124525-2.1330904-.62005155-3.243783-.61119812-2.3831284-.05408467-4.6900992.84092912-6.413217 2.48807552-1.7239163 1.5826888-2.6836106 3.8305379-2.6343302 6.1702735 0 2.5257736.847044 4.600217 2.5411321 6.2233302 1.694088 1.6231132 3.8256604 2.4347862 6.394717 2.4350189 2.3256018.0295642 4.5578051-.9138074 6.1573585-2.602217.8197453-.8351476 1.4735741-1.8182597 1.9267924-2.8971698.4441348-1.0587829.670518-2.1961592.6657278-3.3443113 0-2.2283774-.8890077-4.2347547-2.6668693-6.0191321-.7772976-.7895104-1.7045059-1.4157588-2.7271792-1.8419717"/><path d="m67.0188679 25.9185c-.3609569-.0641985-.7148189-.1633313-1.0565943-.296-.3356606-.1166141-.6094666-.3647154-.7585-.6872925-.1099615-.4672113-.1537886-.9475464-.1301981-1.4269433v-8.6384529c0-1.6079874-.4700629-2.8318962-1.4101887-3.6717264s-2.2991195-1.26009433-4.0769811-1.26079245c-2.6202516 0-4.6602548 1.17376105-6.1200095 3.52128305-.0513113-.641217-.1071604-1.4077453-.1815094-2.2967925-.0743491-.8890472-.2977453-1.33653772-.6701887-1.33653772-.3848945.0981152-.7627331.22207892-1.1309434.37104722-.7798676.2761024-1.5795127.4927872-2.3920849.6481981-.9169717.1870943-1.3728396.3783773-1.3728396.5752452 0 .1745284.246783.2928585.7445377.3535944.355965.0277903.7057602.1087386 1.0377453.2401509.3475462.1729195.6085178.4813634.7215.8527453.1332757.5717114.1896225 1.1586579.1675472 1.745283v8.898151c.0238845.4804794-.0263874.9617708-.1490472 1.4269434-.1386517.3232407-.4074133.5728594-.74.6872924-.3332847.1385222-.6815344.2378547-1.0377453.296-.4981037.0973868-.7445377.2443396-.7445377.4443491 0 .2733113.1860472.4076981.5584906.4076981.5909528-.0506132 1.1354811-.0977359 1.6290471-.148.4935661-.0502642 1.2007547-.0736509 2.1128396-.0736509.2467831 0 .9075472.0366509 1.9686793.111349s1.6430094.1103019 1.7407453.1103019c.3954811 0 .5909528-.1103019.5909528-.3340472 0-.246783-.2373585-.4206132-.7166132-.518-.3625512-.0636762-.7179691-.1628191-1.0611321-.296-.334769-.1181134-.6080622-.3657499-.7585-.6872924-.1075404-.4676015-.1513368-.9476009-.1301981-1.4269434v-7.0094057c-.0459347-1.4010455.4451623-2.7667023 1.3728396-3.8176321.8203817-.9704919 2.0288724-1.5272439 3.2996321-1.5201415 2.3223899 0 3.4843994 1.3101258 3.4860283 3.9303774v8.4168019c.0215134.4804119-.0287213.9613468-.1490472 1.4269434-.1414208.3212799-.4091644.5699531-.74.6872924-.334795.1390365-.6847231.23838-1.042632.296-.4933334.0972705-.74.2453868-.74.4443491 0 .2733113.2000094.4076981.5958396.4076981.5909528-.0506132 1.1309434-.0977359 1.6101981-.148.4792547-.0502642 1.1822547-.0736509 2.0943396-.0736509.2233962 0 .8796227.0371163 1.9686793.111349 1.0890566.073651 1.6754717.1103019 1.7777453.1103019.3724433 0 .5539528-.1103019.5539528-.3340472 0-.246783-.2373585-.4206132-.7215-.518"/><path d="m80.0934811 19.7262358c-.6487818.8788926-1.6915542 1.3783718-2.7830283 1.3330472-1.0758842.0311198-2.0921451-.4932956-2.6901792-1.3881981-.6562264-.9275597-.9835252-2.207434-.9819023-3.8396226 0-1.5557453.3445249-2.8039717 1.0237891-3.7446793.5617001-.8775237 1.5316946-1.4085014 2.5735943-1.4087924 1.1123435-.0473157 2.1757639.4600089 2.8388774 1.3543396.6794968.9010314 1.0192453 2.1919591 1.0192453 3.872783-.0006982 1.6566226-.3341636 2.9303302-1.0003963 3.8211226zm6.5947264-11.56633957-1.6569717-1.0915c-.4886792.40676729-.954088.76420125-1.3962264 1.07230188-.4373679.30682076-.8890471.59339623-1.3498019.85728302-.4792547.27924529-.9679339.53859434-1.48.77665095-.017542.00692788-.0346737.01485275-.0513113.02373584-.6041115.23300148-1.2549663.31902438-1.8988679.25097168-.1301981-.0212924-.2698208-.0404905-.4003679-.05584903-.0032437.00032835-.0065136-.00027719-.0094246-.00174529v.00174529c-.3274812-.03886243-.6570047-.05797876-.986783-.05724529-2.0012578 0-3.6581132.57012582-4.970566 1.71037732-1.2738266 1.062441-1.996356 2.6457909-1.9641415 4.304217-.0199442 1.1798247.3588592 2.3318545 1.0750943 3.2696132.7758229.9819409 1.8203336 1.7172095 3.0064246 2.1163302-2.3037736.4426038-3.4486793 1.5526038-3.4486793 3.33-.0616658 1.1052223.5531465 2.1374112 1.5543491 2.6095472 1.0378616.5277736 2.6078018.7924748 4.7098207.7941038 2.327044 0 3.9699371.2410817 4.9286793.7232452.9679339.4827453 1.4475377 1.4398585 1.4475377 2.8744812.0504717 1.229349-.5040508 2.4055417-1.4845377 3.1488396-.9866667.7679245-2.3704434 1.1518868-4.1513302 1.1518868-1.8523271 0-3.2982359-.3461478-4.3377264-1.0384434-.9780188-.5832083-1.571959-1.6426475-1.5592359-2.781283-.0324396-.6889429.137434-1.3723201.4886793-1.9658868.2768732-.4558147.6726756-.8276035 1.1449056-1.0754434 0-.3445189-.4188679-.5190472-1.2566038-.5190472-.7480169.0132478-1.4531454.3517299-1.9313301.9270944-.5521933.5800203-.8575575 1.3518158-.8517809 2.152632 0 1.5316604.722979 2.7855881 2.1687714 3.7617831 1.4457925.9761949 3.3679308 1.4648742 5.7664151 1.4660377 2.643522 0 4.7130786-.5755944 6.2086698-1.726783 1.47367-1.0983783 2.3125788-2.851511 2.2433868-4.6881793 0-2.0533836-.6547138-3.5310566-1.9641415-4.4330188-1.3094277-.9019623-3.3991132-1.3525944-6.2690566-1.3518963-3.383522 0-5.0760975-.4031603-5.0777264-1.2094811 0-.6328396.3724434-1.0719528 1.1124434-1.3169906.74-.2450377 1.8894434-.3675566 3.4486792-.3675566 2.2525786 0 3.9451541-.4957767 5.0777264-1.4873302 1.1325724-.9915534 1.7018837-2.4059308 1.707934-4.243132-.0248686-1.3451436-.4781555-2.6472887-1.2939528-3.7171038-.193696-.2629554-.4170533-.5027103-.665651-.7145189l-.0094245.0052359c-.4753755-.4043117-1.0028522-.7430097-1.5683113-1.0070283.1675472-.0404906.3350943-.0771415.4886792-.1148397.5445283-.135783 1.0565944-.2708679 1.5313114-.4115377.4886792-.13787735.9773584-.29774527 1.4705754-.48134905.493217-.18360377 1.0426321-.40385849 1.6569717-.67053773l.5630283-.08377359c.2792453-.04188679.4422547-.13438679.4841415-.27226415s-.0418868-.28657547-.2513207-.44225471"/><path d="m25.5834057 16.2409057c-.2233963 0-1.6568554.0738836-4.3003774.2216509-.9913208 0-1.8383648-.0251321-2.5411321-.0753962-.7026509-.0471227-1.2799905-.0973868-1.7218962-.1462547-.5724528 0-.8516981.135783-.8516981.4059528 0 .2216509.3117075.3871038.9448962.4967075.381758.0567238.7595069.1377532 1.1309434.2425944.8656604.318805 1.2984906 1.2547421 1.2984906 2.8078113 0 2.0943396-.5197453 3.6337956-1.5592359 4.6183679-1.0394905.9845723-2.6715629 1.4765095-4.896217 1.4758113-2.643522 0-4.7254119-1.0304151-6.24566977-3.0912452-1.52025786-2.0608302-2.28038679-4.9543931-2.28038679-8.6806887 0-4.1216604.77257862-7.23815411 2.31773585-9.34948115 1.54050315-2.11109434 3.80855661-3.16664151 6.80416041-3.16664151 3.4579874 0 5.8051603 1.7312044 7.0415188 5.19361321.1411892.35459524.253258.72010273.3350944 1.09289622.0977358.43317925.2373585.64924529.4094434.64924529.2233962 0 .3305566-.14765095.3305566-.444l.1630094-3.9349151.1301981-2.7725566-.7026509-.22165094c-.0336198.47088423-.1822396.92633187-.4328302 1.32641509-.1790244.17301478-.447937.21377184-.6701887.10157547-1.0285534-.38210063-2.0446572-.77304402-3.0483113-1.17283019-1.3368614-.3856027-2.723071-.5729474-4.1143302-.55604717-3.88150943 0-7.03849371 1.27696541-9.47095283 3.83089623-2.43874214 2.55649057-3.65660063 5.87008495-3.65358109 9.94078305 0 3.5063899 1.11233266 6.3830817 3.33698675 8.6300754 2.34566038 2.3940629 5.33672642 3.5914655 8.97319807 3.5914655 1.7167743.0031399 3.417172-.3337839 5.0030283-.9913428 1.1635221-.5598868 2.3255315-1.1340849 3.4860283-1.7225944.4109126-.184381.8420343-.3199266 1.2845284-.4038584.5181733-.1005266 1.0450246-.149517 1.572849-.1462548-.074349-.5686132-.1256604-1.0391415-.1490472-1.4087924-.0233868-.369651-.037349-.8904434-.037349-1.5571415v-.4087453c-.0228544-.6900425.0333606-1.3804332.1675472-2.0576887.0873792-.395908.3263228-.7418562.6656509-.9637453.3858205-.2300593.8050301-.398803 1.2426415-.5001981.493217-.123217.7445377-.283783.7445377-.4830943 0-.2471321-.2373585-.3689529-.7075377-.3689529"/></g></svg>